<?xml version="1.0" encoding="UTF-8" standalone="no"?><svg xmlns="http://www.w3.org/2000/svg" xmlns:xlink="http://www.w3.org/1999/xlink" contentScriptType="application/ecmascript" contentStyleType="text/css" height="1171px" preserveAspectRatio="none" style="width:934px;height:1171px;" version="1.1" viewBox="0 0 934 1171" width="934px" zoomAndPan="magnify"><defs/><g><text fill="#000000" font-family="sans-serif" font-size="18" lengthAdjust="spacingAndGlyphs" textLength="184" x="367.75" y="26.708">"Sequencial Diagram</text><text fill="#000000" font-family="sans-serif" font-size="18" lengthAdjust="spacingAndGlyphs" textLength="147" x="392.25" y="47.6611">Authentification"</text><rect fill="#FFFFFF" height="235.8672" style="stroke: #000000; stroke-width: 2.0;" width="899.5" x="13" y="285.7344"/><rect fill="#FFFFFF" height="131.3359" style="stroke: none; stroke-width: 1.0;" width="899.5" x="13" y="390.2656"/><rect fill="#FFFFFF" height="212.7344" style="stroke: #000000; stroke-width: 2.0;" width="899.5" x="13" y="666.1328"/><rect fill="#FFFFFF" height="108.2031" style="stroke: none; stroke-width: 1.0;" width="899.5" x="13" y="770.6641"/><rect fill="#FFFFFF" height="148.4688" style="stroke: #000000; stroke-width: 2.0;" width="751.5" x="13" y="994.2656"/><rect fill="#FFFFFF" height="43.9375" style="stroke: none; stroke-width: 1.0;" width="751.5" x="13" y="1098.7969"/><line style="stroke: #A80036; stroke-width: 1.0; stroke-dasharray: 5.0,5.0;" x1="42" x2="42" y1="138.2031" y2="1159.7344"/><line style="stroke: #A80036; stroke-width: 1.0; stroke-dasharray: 5.0,5.0;" x1="350.5" x2="350.5" y1="138.2031" y2="1159.7344"/><line style="stroke: #A80036; stroke-width: 1.0; stroke-dasharray: 5.0,5.0;" x1="655.5" x2="655.5" y1="138.2031" y2="1159.7344"/><line style="stroke: #A80036; stroke-width: 1.0; stroke-dasharray: 5.0,5.0;" x1="858.5" x2="858.5" y1="138.2031" y2="1159.7344"/><text fill="#000000" font-family="sans-serif" font-size="14" lengthAdjust="spacingAndGlyphs" textLength="32" x="23" y="134.9014">User</text><ellipse cx="42" cy="68.9063" fill="#FEFECE" rx="8" ry="8" style="stroke: #A80036; stroke-width: 2.0;"/><path d="M42,76.9063 L42,103.9063 M29,84.9063 L55,84.9063 M42,103.9063 L29,118.9063 M42,103.9063 L55,118.9063 " fill="none" style="stroke: #A80036; stroke-width: 2.0;"/><rect fill="#FEFECE" height="30.2969" style="stroke: #A80036; stroke-width: 1.5;" width="139" x="281.5" y="106.9063"/><text fill="#000000" font-family="sans-serif" font-size="14" lengthAdjust="spacingAndGlyphs" textLength="125" x="288.5" y="126.9014">Angular/Front-end</text><rect fill="#FEFECE" height="30.2969" style="stroke: #A80036; stroke-width: 1.5;" width="197" x="557.5" y="106.9063"/><text fill="#000000" font-family="sans-serif" font-size="14" lengthAdjust="spacingAndGlyphs" textLength="183" x="564.5" y="126.9014">Django API (back.apps.api)</text><text fill="#000000" font-family="sans-serif" font-size="14" lengthAdjust="spacingAndGlyphs" textLength="81" x="815.5" y="134.9014">PostgreSQL</text><path d="M841,85.9063 C841,75.9063 859,75.9063 859,75.9063 C859,75.9063 877,75.9063 877,85.9063 L877,111.9063 C877,121.9063 859,121.9063 859,121.9063 C859,121.9063 841,121.9063 841,111.9063 L841,85.9063 " fill="#FEFECE" style="stroke: #000000; stroke-width: 1.5;"/><path d="M841,85.9063 C841,95.9063 859,95.9063 859,95.9063 C859,95.9063 877,95.9063 877,85.9063 " fill="none" style="stroke: #000000; stroke-width: 1.5;"/><rect fill="#EEEEEE" height="3" style="stroke: #EEEEEE; stroke-width: 1.0;" width="919.5" x="3" y="168.7695"/><line style="stroke: #000000; stroke-width: 1.0;" x1="3" x2="922.5" y1="168.7695" y2="168.7695"/><line style="stroke: #000000; stroke-width: 1.0;" x1="3" x2="922.5" y1="171.7695" y2="171.7695"/><rect fill="#EEEEEE" height="23.1328" style="stroke: #000000; stroke-width: 2.0;" width="75" x="425.25" y="158.2031"/><text fill="#000000" font-family="sans-serif" font-size="13" font-weight="bold" lengthAdjust="spacingAndGlyphs" textLength="56" x="431.25" y="174.27">Sign up</text><polygon fill="#A80036" points="339,208.4688,349,212.4688,339,216.4688" style="stroke: #A80036; stroke-width: 1.0;"/><line style="stroke: #A80036; stroke-width: 1.0;" x1="42" x2="345" y1="212.4688" y2="212.4688"/><text fill="#000000" font-family="sans-serif" font-size="13" lengthAdjust="spacingAndGlyphs" textLength="75" x="159" y="207.4028">Fill the form</text><polygon fill="#A80036" points="644,237.6016,654,241.6016,644,245.6016" style="stroke: #A80036; stroke-width: 1.0;"/><line style="stroke: #A80036; stroke-width: 1.0;" x1="351" x2="650" y1="241.6016" y2="241.6016"/><text fill="#000000" font-family="sans-serif" font-size="13" lengthAdjust="spacingAndGlyphs" textLength="116" x="445.5" y="236.5356">POST /api/v1/user/</text><polygon fill="#A80036" points="847,266.7344,857,270.7344,847,274.7344" style="stroke: #A80036; stroke-width: 1.0;"/><line style="stroke: #A80036; stroke-width: 1.0;" x1="656" x2="853" y1="270.7344" y2="270.7344"/><text fill="#000000" font-family="sans-serif" font-size="13" lengthAdjust="spacingAndGlyphs" textLength="95" x="710" y="265.6685">Check the mail</text><path d="M13,285.7344 L77,285.7344 L77,292.7344 L67,302.7344 L13,302.7344 L13,285.7344 " fill="#EEEEEE" style="stroke: #000000; stroke-width: 1.0;"/><rect fill="none" height="235.8672" style="stroke: #000000; stroke-width: 2.0;" width="899.5" x="13" y="285.7344"/><text fill="#000000" font-family="sans-serif" font-size="13" font-weight="bold" lengthAdjust="spacingAndGlyphs" textLength="19" x="28" y="298.8013">alt</text><text fill="#000000" font-family="sans-serif" font-size="11" font-weight="bold" lengthAdjust="spacingAndGlyphs" textLength="160" x="92" y="297.9448">[mail already been used]</text><polygon fill="#A80036" points="667,320,657,324,667,328" style="stroke: #A80036; stroke-width: 1.0;"/><line style="stroke: #A80036; stroke-width: 1.0; stroke-dasharray: 2.0,2.0;" x1="661" x2="858" y1="324" y2="324"/><text fill="#000000" font-family="sans-serif" font-size="13" lengthAdjust="spacingAndGlyphs" textLength="47" x="734" y="318.9341">Conflict</text><polygon fill="#A80036" points="362,349.1328,352,353.1328,362,357.1328" style="stroke: #A80036; stroke-width: 1.0;"/><line style="stroke: #A80036; stroke-width: 1.0; stroke-dasharray: 2.0,2.0;" x1="356" x2="655" y1="353.1328" y2="353.1328"/><text fill="#000000" font-family="sans-serif" font-size="13" lengthAdjust="spacingAndGlyphs" textLength="109" x="449" y="348.0669">400 Bad Request</text><polygon fill="#A80036" points="53,378.2656,43,382.2656,53,386.2656" style="stroke: #A80036; stroke-width: 1.0;"/><line style="stroke: #A80036; stroke-width: 1.0; stroke-dasharray: 2.0,2.0;" x1="47" x2="350" y1="382.2656" y2="382.2656"/><text fill="#000000" font-family="sans-serif" font-size="13" lengthAdjust="spacingAndGlyphs" textLength="238" x="77.5" y="377.1997">Display "This mail already been used"</text><line style="stroke: #000000; stroke-width: 1.0; stroke-dasharray: 2.0,2.0;" x1="13" x2="912.5" y1="391.2656" y2="391.2656"/><text fill="#000000" font-family="sans-serif" font-size="11" font-weight="bold" lengthAdjust="spacingAndGlyphs" textLength="69" x="18" y="401.4761">[new user]</text><polygon fill="#A80036" points="847,422.2031,857,426.2031,847,430.2031" style="stroke: #A80036; stroke-width: 1.0;"/><line style="stroke: #A80036; stroke-width: 1.0;" x1="656" x2="853" y1="426.2031" y2="426.2031"/><text fill="#000000" font-family="sans-serif" font-size="13" lengthAdjust="spacingAndGlyphs" textLength="175" x="670" y="421.1372">Save User (hash password)</text><polygon fill="#A80036" points="667,451.3359,657,455.3359,667,459.3359" style="stroke: #A80036; stroke-width: 1.0;"/><line style="stroke: #A80036; stroke-width: 1.0; stroke-dasharray: 2.0,2.0;" x1="661" x2="858" y1="455.3359" y2="455.3359"/><text fill="#000000" font-family="sans-serif" font-size="13" lengthAdjust="spacingAndGlyphs" textLength="53" x="731" y="450.27">Success</text><polygon fill="#A80036" points="362,480.4688,352,484.4688,362,488.4688" style="stroke: #A80036; stroke-width: 1.0;"/><line style="stroke: #A80036; stroke-width: 1.0; stroke-dasharray: 2.0,2.0;" x1="356" x2="655" y1="484.4688" y2="484.4688"/><text fill="#000000" font-family="sans-serif" font-size="13" lengthAdjust="spacingAndGlyphs" textLength="79" x="464" y="479.4028">201 Created</text><polygon fill="#A80036" points="53,509.6016,43,513.6016,53,517.6016" style="stroke: #A80036; stroke-width: 1.0;"/><line style="stroke: #A80036; stroke-width: 1.0; stroke-dasharray: 2.0,2.0;" x1="47" x2="350" y1="513.6016" y2="513.6016"/><text fill="#000000" font-family="sans-serif" font-size="13" lengthAdjust="spacingAndGlyphs" textLength="205" x="94" y="508.5356">Display "Successful registration"</text><rect fill="#EEEEEE" height="3" style="stroke: #EEEEEE; stroke-width: 1.0;" width="919.5" x="3" y="549.168"/><line style="stroke: #000000; stroke-width: 1.0;" x1="3" x2="922.5" y1="549.168" y2="549.168"/><line style="stroke: #000000; stroke-width: 1.0;" x1="3" x2="922.5" y1="552.168" y2="552.168"/><rect fill="#EEEEEE" height="23.1328" style="stroke: #000000; stroke-width: 2.0;" width="188" x="368.75" y="538.6016"/><text fill="#000000" font-family="sans-serif" font-size="13" font-weight="bold" lengthAdjust="spacingAndGlyphs" textLength="174" x="374.75" y="554.6685">Log in (with SimpleJWT)</text><polygon fill="#A80036" points="339,588.8672,349,592.8672,339,596.8672" style="stroke: #A80036; stroke-width: 1.0;"/><line style="stroke: #A80036; stroke-width: 1.0;" x1="42" x2="345" y1="592.8672" y2="592.8672"/><text fill="#000000" font-family="sans-serif" font-size="13" lengthAdjust="spacingAndGlyphs" textLength="100" x="146.5" y="587.8013">Enter identifiers</text><polygon fill="#A80036" points="644,618,654,622,644,626" style="stroke: #A80036; stroke-width: 1.0;"/><line style="stroke: #A80036; stroke-width: 1.0;" x1="351" x2="650" y1="622" y2="622"/><text fill="#000000" font-family="sans-serif" font-size="13" lengthAdjust="spacingAndGlyphs" textLength="124" x="441.5" y="616.9341">POST /api/v1/token/</text><polygon fill="#A80036" points="847,647.1328,857,651.1328,847,655.1328" style="stroke: #A80036; stroke-width: 1.0;"/><line style="stroke: #A80036; stroke-width: 1.0;" x1="656" x2="853" y1="651.1328" y2="651.1328"/><text fill="#000000" font-family="sans-serif" font-size="13" lengthAdjust="spacingAndGlyphs" textLength="70" x="722.5" y="646.0669">Verify User</text><path d="M13,666.1328 L77,666.1328 L77,673.1328 L67,683.1328 L13,683.1328 L13,666.1328 " fill="#EEEEEE" style="stroke: #000000; stroke-width: 1.0;"/><rect fill="none" height="212.7344" style="stroke: #000000; stroke-width: 2.0;" width="899.5" x="13" y="666.1328"/><text fill="#000000" font-family="sans-serif" font-size="13" font-weight="bold" lengthAdjust="spacingAndGlyphs" textLength="19" x="28" y="679.1997">alt</text><text fill="#000000" font-family="sans-serif" font-size="11" font-weight="bold" lengthAdjust="spacingAndGlyphs" textLength="123" x="92" y="678.3433">[invalid identifiers]</text><polygon fill="#A80036" points="667,700.3984,657,704.3984,667,708.3984" style="stroke: #A80036; stroke-width: 1.0;"/><line style="stroke: #A80036; stroke-width: 1.0; stroke-dasharray: 2.0,2.0;" x1="661" x2="858" y1="704.3984" y2="704.3984"/><text fill="#000000" font-family="sans-serif" font-size="13" lengthAdjust="spacingAndGlyphs" textLength="179" x="668" y="699.3325">Not found / Wrong password</text><polygon fill="#A80036" points="362,729.5313,352,733.5313,362,737.5313" style="stroke: #A80036; stroke-width: 1.0;"/><line style="stroke: #A80036; stroke-width: 1.0; stroke-dasharray: 2.0,2.0;" x1="356" x2="655" y1="733.5313" y2="733.5313"/><text fill="#000000" font-family="sans-serif" font-size="13" lengthAdjust="spacingAndGlyphs" textLength="114" x="446.5" y="728.4653">401 Unauthorized</text><polygon fill="#A80036" points="53,758.6641,43,762.6641,53,766.6641" style="stroke: #A80036; stroke-width: 1.0;"/><line style="stroke: #A80036; stroke-width: 1.0; stroke-dasharray: 2.0,2.0;" x1="47" x2="350" y1="762.6641" y2="762.6641"/><text fill="#000000" font-family="sans-serif" font-size="13" lengthAdjust="spacingAndGlyphs" textLength="218" x="87.5" y="757.5981">Display "Email or password wrong"</text><line style="stroke: #000000; stroke-width: 1.0; stroke-dasharray: 2.0,2.0;" x1="13" x2="912.5" y1="771.6641" y2="771.6641"/><text fill="#000000" font-family="sans-serif" font-size="11" font-weight="bold" lengthAdjust="spacingAndGlyphs" textLength="111" x="18" y="781.8745">[valid identifiers]</text><polygon fill="#A80036" points="362,802.6016,352,806.6016,362,810.6016" style="stroke: #A80036; stroke-width: 1.0;"/><line style="stroke: #A80036; stroke-width: 1.0; stroke-dasharray: 2.0,2.0;" x1="356" x2="655" y1="806.6016" y2="806.6016"/><text fill="#000000" font-family="sans-serif" font-size="13" lengthAdjust="spacingAndGlyphs" textLength="163" x="422" y="801.5356">200 OK {access, refresh}</text><path d="M188,819.6016 L188,844.6016 L514,844.6016 L514,829.6016 L504,819.6016 L188,819.6016 " fill="#FBFB77" style="stroke: #A80036; stroke-width: 1.0;"/><path d="M504,819.6016 L504,829.6016 L514,829.6016 L504,819.6016 " fill="#FBFB77" style="stroke: #A80036; stroke-width: 1.0;"/><text fill="#000000" font-family="sans-serif" font-size="13" lengthAdjust="spacingAndGlyphs" textLength="305" x="194" y="836.6685">Tokens are stored in localStorage/Cookies/store</text><polygon fill="#A80036" points="53,866.8672,43,870.8672,53,874.8672" style="stroke: #A80036; stroke-width: 1.0;"/><line style="stroke: #A80036; stroke-width: 1.0; stroke-dasharray: 2.0,2.0;" x1="47" x2="350" y1="870.8672" y2="870.8672"/><text fill="#000000" font-family="sans-serif" font-size="13" lengthAdjust="spacingAndGlyphs" textLength="141" x="126" y="865.8013">Redirect to main page</text><rect fill="#EEEEEE" height="3" style="stroke: #EEEEEE; stroke-width: 1.0;" width="919.5" x="3" y="906.4336"/><line style="stroke: #000000; stroke-width: 1.0;" x1="3" x2="922.5" y1="906.4336" y2="906.4336"/><line style="stroke: #000000; stroke-width: 1.0;" x1="3" x2="922.5" y1="909.4336" y2="909.4336"/><rect fill="#EEEEEE" height="23.1328" style="stroke: #000000; stroke-width: 2.0;" width="272" x="326.75" y="895.8672"/><text fill="#000000" font-family="sans-serif" font-size="13" font-weight="bold" lengthAdjust="spacingAndGlyphs" textLength="253" x="332.75" y="911.9341">API call with expired access token</text><polygon fill="#A80036" points="644,946.1328,654,950.1328,644,954.1328" style="stroke: #A80036; stroke-width: 1.0;"/><line style="stroke: #A80036; stroke-width: 1.0;" x1="351" x2="650" y1="950.1328" y2="950.1328"/><text fill="#000000" font-family="sans-serif" font-size="13" lengthAdjust="spacingAndGlyphs" textLength="281" x="363" y="945.0669">GET /api/v1/user/me/ (expired access token)</text><polygon fill="#A80036" points="362,975.2656,352,979.2656,362,983.2656" style="stroke: #A80036; stroke-width: 1.0;"/><line style="stroke: #A80036; stroke-width: 1.0; stroke-dasharray: 2.0,2.0;" x1="356" x2="655" y1="979.2656" y2="979.2656"/><text fill="#000000" font-family="sans-serif" font-size="13" lengthAdjust="spacingAndGlyphs" textLength="114" x="446.5" y="974.1997">401 Unauthorized</text><path d="M13,994.2656 L77,994.2656 L77,1001.2656 L67,1011.2656 L13,1011.2656 L13,994.2656 " fill="#EEEEEE" style="stroke: #000000; stroke-width: 1.0;"/><rect fill="none" height="148.4688" style="stroke: #000000; stroke-width: 2.0;" width="751.5" x="13" y="994.2656"/><text fill="#000000" font-family="sans-serif" font-size="13" font-weight="bold" lengthAdjust="spacingAndGlyphs" textLength="19" x="28" y="1007.3325">alt</text><text fill="#000000" font-family="sans-serif" font-size="11" font-weight="bold" lengthAdjust="spacingAndGlyphs" textLength="131" x="92" y="1006.4761">[valid refresh token]</text><polygon fill="#A80036" points="644,1028.5313,654,1032.5313,644,1036.5313" style="stroke: #A80036; stroke-width: 1.0;"/><line style="stroke: #A80036; stroke-width: 1.0;" x1="351" x2="650" y1="1032.5313" y2="1032.5313"/><text fill="#000000" font-family="sans-serif" font-size="13" lengthAdjust="spacingAndGlyphs" textLength="281" x="363" y="1027.4653">POST /api/v1/token/refresh/ {refresh_token}</text><polygon fill="#A80036" points="362,1057.6641,352,1061.6641,362,1065.6641" style="stroke: #A80036; stroke-width: 1.0;"/><line style="stroke: #A80036; stroke-width: 1.0; stroke-dasharray: 2.0,2.0;" x1="356" x2="655" y1="1061.6641" y2="1061.6641"/><text fill="#000000" font-family="sans-serif" font-size="13" lengthAdjust="spacingAndGlyphs" textLength="185" x="411" y="1056.5981">200 OK {new_access_token}</text><polygon fill="#A80036" points="644,1086.7969,654,1090.7969,644,1094.7969" style="stroke: #A80036; stroke-width: 1.0;"/><line style="stroke: #A80036; stroke-width: 1.0;" x1="351" x2="650" y1="1090.7969" y2="1090.7969"/><text fill="#000000" font-family="sans-serif" font-size="13" lengthAdjust="spacingAndGlyphs" textLength="169" x="419" y="1085.731">Retry the previous request</text><line style="stroke: #000000; stroke-width: 1.0; stroke-dasharray: 2.0,2.0;" x1="13" x2="764.5" y1="1099.7969" y2="1099.7969"/><text fill="#000000" font-family="sans-serif" font-size="11" font-weight="bold" lengthAdjust="spacingAndGlyphs" textLength="148" x="18" y="1110.0073">[expired refresh token]</text><polygon fill="#A80036" points="53,1130.7344,43,1134.7344,53,1138.7344" style="stroke: #A80036; stroke-width: 1.0;"/><line style="stroke: #A80036; stroke-width: 1.0; stroke-dasharray: 2.0,2.0;" x1="47" x2="350" y1="1134.7344" y2="1134.7344"/><text fill="#000000" font-family="sans-serif" font-size="13" lengthAdjust="spacingAndGlyphs" textLength="285" x="54" y="1129.6685">Forced disconnection (redirect to login page)</text><!--MD5=[e3ed097468cfa25450d1c30c2d8cce95]
@startuml
title "Sequencial Diagram \n Authentification"

skinparam style strictuml
skinparam sequenceMessageAlign center

actor "User" as User
participant "Angular/Front-end" as Front
participant "Django API (back.apps.api)" as API
database "PostgreSQL" as DB

== Sign up ==
User -> Front: Fill the form
Front -> API: POST /api/v1/user/
API -> DB: Check the mail

alt mail already been used
    DB - -> API: Conflict
    API - -> Front: 400 Bad Request
    Front - -> User: Display "This mail already been used"
else new user
    API -> DB: Save User (hash password)
    DB - -> API: Success
    API - -> Front: 201 Created
    Front - -> User: Display "Successful registration"
end

== Log in (with SimpleJWT)==

User -> Front: Enter identifiers
Front -> API: POST /api/v1/token/
API -> DB: Verify User
alt invalid identifiers
    DB - -> API: Not found / Wrong password
    API - -> Front: 401 Unauthorized
    Front - -> User: Display "Email or password wrong"
else valid identifiers
    API - -> Front: 200 OK {access, refresh}
    Note over Front: Tokens are stored in localStorage/Cookies/store
    Front - -> User: Redirect to main page
end

== API call with expired access token ==
Front -> API: GET /api/v1/user/me/ (expired access token)
API - -> Front: 401 Unauthorized

alt valid refresh token
    Front -> API: POST /api/v1/token/refresh/ {refresh_token}
    API - -> Front: 200 OK {new_access_token}
    Front -> API: Retry the previous request
else expired refresh token
    Front - -> User:  Forced disconnection (redirect to login page)
end
@enduml

PlantUML version 1.2020.02(Sun Mar 01 11:22:07 CET 2020)
(GPL source distribution)
Java Runtime: OpenJDK Runtime Environment
JVM: OpenJDK 64-Bit Server VM
Java Version: 21.0.10+7-Ubuntu-124.04
Operating System: Linux
Default Encoding: UTF-8
Language: en
Country: null
--></g></svg>