<?xml version="1.0" encoding="UTF-8" standalone="no"?><svg xmlns="http://www.w3.org/2000/svg" xmlns:xlink="http://www.w3.org/1999/xlink" contentScriptType="application/ecmascript" contentStyleType="text/css" height="582px" preserveAspectRatio="none" style="width:432px;height:582px;" version="1.1" viewBox="0 0 432 582" width="432.5px" zoomAndPan="magnify"><defs/><g><text fill="#000000" font-family="Arial" font-size="9" lengthAdjust="spacingAndGlyphs" textLength="80.5" x="173.75" y="13.4419">Sequencial Diagram</text><text fill="#000000" font-family="Arial" font-size="9" lengthAdjust="spacingAndGlyphs" textLength="61" x="183.5" y="23.791">Authentification</text><rect fill="#FFFFFF" height="117.1194" style="stroke: #000000; stroke-width: 1.0;" width="415" x="6.5" y="142.145"/><rect fill="#FFFFFF" height="65.2219" style="stroke: none; stroke-width: 0.5;" width="415" x="6.5" y="194.0425"/><rect fill="#FFFFFF" height="105.645" style="stroke: #000000; stroke-width: 1.0;" width="415" x="6.5" y="331.1619"/><rect fill="#FFFFFF" height="53.7476" style="stroke: none; stroke-width: 0.5;" width="415" x="6.5" y="383.0593"/><rect fill="#FFFFFF" height="73.6963" style="stroke: #000000; stroke-width: 1.0;" width="346.75" x="6.5" y="494.23"/><rect fill="#FFFFFF" height="21.7988" style="stroke: none; stroke-width: 0.5;" width="346.75" x="6.5" y="546.1274"/><line style="stroke: #383838; stroke-width: 0.5; stroke-dasharray: 5.0,5.0;" x1="20" x2="20" y1="68.7476" y2="576.4263"/><line style="stroke: #383838; stroke-width: 0.5; stroke-dasharray: 5.0,5.0;" x1="160.75" x2="160.75" y1="68.7476" y2="576.4263"/><line style="stroke: #383838; stroke-width: 0.5; stroke-dasharray: 5.0,5.0;" x1="301.75" x2="301.75" y1="68.7476" y2="576.4263"/><line style="stroke: #383838; stroke-width: 0.5; stroke-dasharray: 5.0,5.0;" x1="395.5" x2="395.5" y1="68.7476" y2="576.4263"/><text fill="#000000" font-family="Arial" font-size="7" lengthAdjust="spacingAndGlyphs" textLength="14.5" x="11.5" y="67.2642">User</text><ellipse cx="20.25" cy="34.1982" fill="#F8F8F8" rx="4" ry="4" style="stroke: #383838; stroke-width: 1.0;"/><path d="M20.25,38.1982 L20.25,51.6982 M13.75,42.1982 L26.75,42.1982 M20.25,51.6982 L13.75,59.1982 M20.25,51.6982 L26.75,59.1982 " fill="none" style="stroke: #383838; stroke-width: 1.0;"/><rect fill="#F8F8F8" height="15.0493" style="stroke: #383838; stroke-width: 0.75;" width="65" x="128.25" y="53.1982"/><text fill="#000000" font-family="Arial" font-size="7" lengthAdjust="spacingAndGlyphs" textLength="58" x="131.75" y="63.2642">Angular/Front-end</text><rect fill="#F8F8F8" height="15.0493" style="stroke: #383838; stroke-width: 0.75;" width="93" x="255.25" y="53.1982"/><text fill="#000000" font-family="Arial" font-size="7" lengthAdjust="spacingAndGlyphs" textLength="86" x="258.75" y="63.2642">Django API (back.apps.api)</text><text fill="#000000" font-family="Arial" font-size="7" lengthAdjust="spacingAndGlyphs" textLength="38.5" x="375" y="67.2642">PostgreSQL</text><path d="M386.75,42.6982 C386.75,37.6982 395.75,37.6982 395.75,37.6982 C395.75,37.6982 404.75,37.6982 404.75,42.6982 L404.75,55.6982 C404.75,60.6982 395.75,60.6982 395.75,60.6982 C395.75,60.6982 386.75,60.6982 386.75,55.6982 L386.75,42.6982 " fill="#F8F8F8" style="stroke: #000000; stroke-width: 0.75;"/><path d="M386.75,42.6982 C386.75,47.6982 395.75,47.6982 395.75,47.6982 C395.75,47.6982 404.75,47.6982 404.75,42.6982 " fill="none" style="stroke: #000000; stroke-width: 0.75;"/><rect fill="#EEEEEE" height="1.5" style="stroke: #EEEEEE; stroke-width: 0.5;" width="425" x="1.5" y="83.9847"/><line style="stroke: #000000; stroke-width: 0.5;" x1="1.5" x2="426.5" y1="83.9847" y2="83.9847"/><line style="stroke: #000000; stroke-width: 0.5;" x1="1.5" x2="426.5" y1="85.4847" y2="85.4847"/><rect fill="#EEEEEE" height="11.4744" style="stroke: #000000; stroke-width: 1.0;" width="33.5" x="197.25" y="78.7476"/><text fill="#000000" font-family="Arial" font-size="6.5" font-weight="bold" lengthAdjust="spacingAndGlyphs" textLength="24.5" x="200.25" y="86.8445">Sign up</text><polygon fill="#383838" points="154.75,103.6963,159.75,105.6963,154.75,107.6963" style="stroke: #383838; stroke-width: 0.5;"/><line style="stroke: #383838; stroke-width: 0.5;" x1="20.25" x2="157.75" y1="105.6963" y2="105.6963"/><text fill="#000000" font-family="Arial" font-size="6.5" lengthAdjust="spacingAndGlyphs" textLength="34" x="73.5" y="103.3188">Fill the form</text><polygon fill="#383838" points="295.75,118.1707,300.75,120.1707,295.75,122.1707" style="stroke: #383838; stroke-width: 0.5;"/><line style="stroke: #383838; stroke-width: 0.5;" x1="160.75" x2="298.75" y1="120.1707" y2="120.1707"/><text fill="#000000" font-family="Arial" font-size="6.5" lengthAdjust="spacingAndGlyphs" textLength="54.5" x="204" y="117.7932">POST /api/v1/user/</text><polygon fill="#383838" points="389.75,132.645,394.75,134.645,389.75,136.645" style="stroke: #383838; stroke-width: 0.5;"/><line style="stroke: #383838; stroke-width: 0.5;" x1="301.75" x2="392.75" y1="134.645" y2="134.645"/><text fill="#000000" font-family="Arial" font-size="6.5" lengthAdjust="spacingAndGlyphs" textLength="43.5" x="327" y="132.2676">Check the mail</text><path d="M6.5,142.145 L37,142.145 L37,145.145 L32,150.145 L6.5,150.145 L6.5,142.145 " fill="#EEEEEE" style="stroke: #000000; stroke-width: 0.5;"/><rect fill="none" height="117.1194" style="stroke: #000000; stroke-width: 1.0;" width="415" x="6.5" y="142.145"/><text fill="#000000" font-family="Arial" font-size="6.5" font-weight="bold" lengthAdjust="spacingAndGlyphs" textLength="8" x="14" y="148.7419">alt</text><text fill="#000000" font-family="Arial" font-size="5.5" font-weight="bold" lengthAdjust="spacingAndGlyphs" textLength="68" x="44.5" y="148.304">[mail already been used]</text><polygon fill="#383838" points="307.25,159.0938,302.25,161.0938,307.25,163.0938" style="stroke: #383838; stroke-width: 0.5;"/><line style="stroke: #383838; stroke-width: 0.5; stroke-dasharray: 2.0,2.0;" x1="304.25" x2="395.25" y1="161.0938" y2="161.0938"/><text fill="#000000" font-family="Arial" font-size="6.5" lengthAdjust="spacingAndGlyphs" textLength="21.5" x="338" y="158.7163">Conflict</text><polygon fill="#383838" points="166.25,173.5681,161.25,175.5681,166.25,177.5681" style="stroke: #383838; stroke-width: 0.5;"/><line style="stroke: #383838; stroke-width: 0.5; stroke-dasharray: 2.0,2.0;" x1="163.25" x2="301.25" y1="175.5681" y2="175.5681"/><text fill="#000000" font-family="Arial" font-size="6.5" lengthAdjust="spacingAndGlyphs" textLength="50" x="206.25" y="173.1907">400 Bad Request</text><polygon fill="#383838" points="25.75,188.0425,20.75,190.0425,25.75,192.0425" style="stroke: #383838; stroke-width: 0.5;"/><line style="stroke: #383838; stroke-width: 0.5; stroke-dasharray: 2.0,2.0;" x1="22.75" x2="160.25" y1="190.0425" y2="190.0425"/><text fill="#000000" font-family="Arial" font-size="6.5" lengthAdjust="spacingAndGlyphs" textLength="109.5" x="35.75" y="187.665">Display "This mail already been used"</text><line style="stroke: #000000; stroke-width: 0.5; stroke-dasharray: 2.0,2.0;" x1="6.5" x2="421.5" y1="194.5425" y2="194.5425"/><text fill="#000000" font-family="Arial" font-size="5.5" font-weight="bold" lengthAdjust="spacingAndGlyphs" textLength="30.5" x="9" y="199.7014">[new user]</text><polygon fill="#383838" points="389.75,209.8413,394.75,211.8413,389.75,213.8413" style="stroke: #383838; stroke-width: 0.5;"/><line style="stroke: #383838; stroke-width: 0.5;" x1="301.75" x2="392.75" y1="211.8413" y2="211.8413"/><text fill="#000000" font-family="Arial" font-size="6.5" lengthAdjust="spacingAndGlyphs" textLength="79" x="309.25" y="209.4639">Save User (hash password)</text><polygon fill="#383838" points="307.25,224.3157,302.25,226.3157,307.25,228.3157" style="stroke: #383838; stroke-width: 0.5;"/><line style="stroke: #383838; stroke-width: 0.5; stroke-dasharray: 2.0,2.0;" x1="304.25" x2="395.25" y1="226.3157" y2="226.3157"/><text fill="#000000" font-family="Arial" font-size="6.5" lengthAdjust="spacingAndGlyphs" textLength="25.5" x="336" y="223.9382">Success</text><polygon fill="#383838" points="166.25,238.79,161.25,240.79,166.25,242.79" style="stroke: #383838; stroke-width: 0.5;"/><line style="stroke: #383838; stroke-width: 0.5; stroke-dasharray: 2.0,2.0;" x1="163.25" x2="301.25" y1="240.79" y2="240.79"/><text fill="#000000" font-family="Arial" font-size="6.5" lengthAdjust="spacingAndGlyphs" textLength="35" x="213.75" y="238.4126">201 Created</text><polygon fill="#383838" points="25.75,253.2644,20.75,255.2644,25.75,257.2644" style="stroke: #383838; stroke-width: 0.5;"/><line style="stroke: #383838; stroke-width: 0.5; stroke-dasharray: 2.0,2.0;" x1="22.75" x2="160.25" y1="255.2644" y2="255.2644"/><text fill="#000000" font-family="Arial" font-size="6.5" lengthAdjust="spacingAndGlyphs" textLength="94.5" x="43.25" y="252.887">Display "Successful registration"</text><rect fill="#EEEEEE" height="1.5" style="stroke: #EEEEEE; stroke-width: 0.5;" width="425" x="1.5" y="273.0016"/><line style="stroke: #000000; stroke-width: 0.5;" x1="1.5" x2="426.5" y1="273.0016" y2="273.0016"/><line style="stroke: #000000; stroke-width: 0.5;" x1="1.5" x2="426.5" y1="274.5016" y2="274.5016"/><rect fill="#EEEEEE" height="11.4744" style="stroke: #000000; stroke-width: 1.0;" width="85" x="171.5" y="267.7644"/><text fill="#000000" font-family="Arial" font-size="6.5" font-weight="bold" lengthAdjust="spacingAndGlyphs" textLength="78" x="174.5" y="275.8613">Log in (with SimpleJWT)</text><polygon fill="#383838" points="154.75,292.7131,159.75,294.7131,154.75,296.7131" style="stroke: #383838; stroke-width: 0.5;"/><line style="stroke: #383838; stroke-width: 0.5;" x1="20.25" x2="157.75" y1="294.7131" y2="294.7131"/><text fill="#000000" font-family="Arial" font-size="6.5" lengthAdjust="spacingAndGlyphs" textLength="45" x="68" y="292.3357">Enter identifiers</text><polygon fill="#383838" points="295.75,307.1875,300.75,309.1875,295.75,311.1875" style="stroke: #383838; stroke-width: 0.5;"/><line style="stroke: #383838; stroke-width: 0.5;" x1="160.75" x2="298.75" y1="309.1875" y2="309.1875"/><text fill="#000000" font-family="Arial" font-size="6.5" lengthAdjust="spacingAndGlyphs" textLength="58" x="202.25" y="306.8101">POST /api/v1/token/</text><polygon fill="#383838" points="389.75,321.6619,394.75,323.6619,389.75,325.6619" style="stroke: #383838; stroke-width: 0.5;"/><line style="stroke: #383838; stroke-width: 0.5;" x1="301.75" x2="392.75" y1="323.6619" y2="323.6619"/><text fill="#000000" font-family="Arial" font-size="6.5" lengthAdjust="spacingAndGlyphs" textLength="32" x="332.75" y="321.2844">Verify User</text><path d="M6.5,331.1619 L37,331.1619 L37,334.1619 L32,339.1619 L6.5,339.1619 L6.5,331.1619 " fill="#EEEEEE" style="stroke: #000000; stroke-width: 0.5;"/><rect fill="none" height="105.645" style="stroke: #000000; stroke-width: 1.0;" width="415" x="6.5" y="331.1619"/><text fill="#000000" font-family="Arial" font-size="6.5" font-weight="bold" lengthAdjust="spacingAndGlyphs" textLength="8" x="14" y="337.7588">alt</text><text fill="#000000" font-family="Arial" font-size="5.5" font-weight="bold" lengthAdjust="spacingAndGlyphs" textLength="51.5" x="44.5" y="337.3208">[invalid identifiers]</text><polygon fill="#383838" points="307.25,348.1106,302.25,350.1106,307.25,352.1106" style="stroke: #383838; stroke-width: 0.5;"/><line style="stroke: #383838; stroke-width: 0.5; stroke-dasharray: 2.0,2.0;" x1="304.25" x2="395.25" y1="350.1106" y2="350.1106"/><text fill="#000000" font-family="Arial" font-size="6.5" lengthAdjust="spacingAndGlyphs" textLength="82" x="307.75" y="347.7332">Not found / Wrong password</text><polygon fill="#383838" points="166.25,362.585,161.25,364.585,166.25,366.585" style="stroke: #383838; stroke-width: 0.5;"/><line style="stroke: #383838; stroke-width: 0.5; stroke-dasharray: 2.0,2.0;" x1="163.25" x2="301.25" y1="364.585" y2="364.585"/><text fill="#000000" font-family="Arial" font-size="6.5" lengthAdjust="spacingAndGlyphs" textLength="50.5" x="206" y="362.2075">401 Unauthorized</text><polygon fill="#383838" points="25.75,377.0593,20.75,379.0593,25.75,381.0593" style="stroke: #383838; stroke-width: 0.5;"/><line style="stroke: #383838; stroke-width: 0.5; stroke-dasharray: 2.0,2.0;" x1="22.75" x2="160.25" y1="379.0593" y2="379.0593"/><text fill="#000000" font-family="Arial" font-size="6.5" lengthAdjust="spacingAndGlyphs" textLength="101" x="40" y="376.6819">Display "Email or password wrong"</text><line style="stroke: #000000; stroke-width: 0.5; stroke-dasharray: 2.0,2.0;" x1="6.5" x2="421.5" y1="383.5593" y2="383.5593"/><text fill="#000000" font-family="Arial" font-size="5.5" font-weight="bold" lengthAdjust="spacingAndGlyphs" textLength="46.5" x="9" y="388.7183">[valid identifiers]</text><polygon fill="#383838" points="166.25,398.8582,161.25,400.8582,166.25,402.8582" style="stroke: #383838; stroke-width: 0.5;"/><line style="stroke: #383838; stroke-width: 0.5; stroke-dasharray: 2.0,2.0;" x1="163.25" x2="301.25" y1="400.8582" y2="400.8582"/><text fill="#000000" font-family="Arial" font-size="6.5" lengthAdjust="spacingAndGlyphs" textLength="72.5" x="195" y="398.4807">200 OK {access, refresh}</text><path d="M86,407.3582 L86,419.3582 L235.5,419.3582 L235.5,412.3582 L230.5,407.3582 L86,407.3582 " fill="#ECECEC" style="stroke: #383838; stroke-width: 0.5;"/><path d="M230.5,407.3582 L230.5,412.3582 L235.5,412.3582 L230.5,407.3582 " fill="#ECECEC" style="stroke: #383838; stroke-width: 0.5;"/><text fill="#000000" font-family="Arial" font-size="6.5" lengthAdjust="spacingAndGlyphs" textLength="139" x="89" y="415.9551">Tokens are stored in localStorage/Cookies/store</text><polygon fill="#383838" points="25.75,430.8069,20.75,432.8069,25.75,434.8069" style="stroke: #383838; stroke-width: 0.5;"/><line style="stroke: #383838; stroke-width: 0.5; stroke-dasharray: 2.0,2.0;" x1="22.75" x2="160.25" y1="432.8069" y2="432.8069"/><text fill="#000000" font-family="Arial" font-size="6.5" lengthAdjust="spacingAndGlyphs" textLength="63.5" x="58.75" y="430.4294">Redirect to main page</text><rect fill="#EEEEEE" height="1.5" style="stroke: #EEEEEE; stroke-width: 0.5;" width="425" x="1.5" y="450.5441"/><line style="stroke: #000000; stroke-width: 0.5;" x1="1.5" x2="426.5" y1="450.5441" y2="450.5441"/><line style="stroke: #000000; stroke-width: 0.5;" x1="1.5" x2="426.5" y1="452.0441" y2="452.0441"/><rect fill="#EEEEEE" height="11.4744" style="stroke: #000000; stroke-width: 1.0;" width="118" x="155" y="445.3069"/><text fill="#000000" font-family="Arial" font-size="6.5" font-weight="bold" lengthAdjust="spacingAndGlyphs" textLength="109" x="158" y="453.4038">API call with expired access token</text><polygon fill="#383838" points="295.75,470.2556,300.75,472.2556,295.75,474.2556" style="stroke: #383838; stroke-width: 0.5;"/><line style="stroke: #383838; stroke-width: 0.5;" x1="160.75" x2="298.75" y1="472.2556" y2="472.2556"/><text fill="#000000" font-family="Arial" font-size="6.5" lengthAdjust="spacingAndGlyphs" textLength="129" x="166.75" y="469.8782">GET /api/v1/user/me/ (expired access token)</text><polygon fill="#383838" points="166.25,484.73,161.25,486.73,166.25,488.73" style="stroke: #383838; stroke-width: 0.5;"/><line style="stroke: #383838; stroke-width: 0.5; stroke-dasharray: 2.0,2.0;" x1="163.25" x2="301.25" y1="486.73" y2="486.73"/><text fill="#000000" font-family="Arial" font-size="6.5" lengthAdjust="spacingAndGlyphs" textLength="50.5" x="206" y="484.3525">401 Unauthorized</text><path d="M6.5,494.23 L37,494.23 L37,497.23 L32,502.23 L6.5,502.23 L6.5,494.23 " fill="#EEEEEE" style="stroke: #000000; stroke-width: 0.5;"/><rect fill="none" height="73.6963" style="stroke: #000000; stroke-width: 1.0;" width="346.75" x="6.5" y="494.23"/><text fill="#000000" font-family="Arial" font-size="6.5" font-weight="bold" lengthAdjust="spacingAndGlyphs" textLength="8" x="14" y="500.8269">alt</text><text fill="#000000" font-family="Arial" font-size="5.5" font-weight="bold" lengthAdjust="spacingAndGlyphs" textLength="56.5" x="44.5" y="500.3889">[valid refresh token]</text><polygon fill="#383838" points="295.75,511.1787,300.75,513.1787,295.75,515.1787" style="stroke: #383838; stroke-width: 0.5;"/><line style="stroke: #383838; stroke-width: 0.5;" x1="160.75" x2="298.75" y1="513.1787" y2="513.1787"/><text fill="#000000" font-family="Arial" font-size="6.5" lengthAdjust="spacingAndGlyphs" textLength="124.5" x="169" y="510.8013">POST /api/v1/token/refresh/ {refresh_token}</text><polygon fill="#383838" points="166.25,525.6531,161.25,527.6531,166.25,529.6531" style="stroke: #383838; stroke-width: 0.5;"/><line style="stroke: #383838; stroke-width: 0.5; stroke-dasharray: 2.0,2.0;" x1="163.25" x2="301.25" y1="527.6531" y2="527.6531"/><text fill="#000000" font-family="Arial" font-size="6.5" lengthAdjust="spacingAndGlyphs" textLength="83.5" x="189.5" y="525.2756">200 OK {new_access_token}</text><polygon fill="#383838" points="295.75,540.1274,300.75,542.1274,295.75,544.1274" style="stroke: #383838; stroke-width: 0.5;"/><line style="stroke: #383838; stroke-width: 0.5;" x1="160.75" x2="298.75" y1="542.1274" y2="542.1274"/><text fill="#000000" font-family="Arial" font-size="6.5" lengthAdjust="spacingAndGlyphs" textLength="75.5" x="193.5" y="539.75">Retry the previous request</text><line style="stroke: #000000; stroke-width: 0.5; stroke-dasharray: 2.0,2.0;" x1="6.5" x2="353.25" y1="546.6274" y2="546.6274"/><text fill="#000000" font-family="Arial" font-size="5.5" font-weight="bold" lengthAdjust="spacingAndGlyphs" textLength="65" x="9" y="551.7864">[expired refresh token]</text><polygon fill="#383838" points="25.75,561.9263,20.75,563.9263,25.75,565.9263" style="stroke: #383838; stroke-width: 0.5;"/><line style="stroke: #383838; stroke-width: 0.5; stroke-dasharray: 2.0,2.0;" x1="22.75" x2="160.25" y1="563.9263" y2="563.9263"/><text fill="#000000" font-family="Arial" font-size="6.5" lengthAdjust="spacingAndGlyphs" textLength="128.5" x="26.25" y="561.5488">Forced disconnection (redirect to login page)</text><!--MD5=[f3f07c091af2362b1d05b79b7cceb613]
@startuml
title Sequencial Diagram\nAuthentification
scale 0.5
skinparam monochrome true
skinparam shadowing false
skinparam defaultFontName Arial
skinparam linetype ortho
skinparam style strictuml
skinparam sequenceMessageAlign center

actor "User" as User
participant "Angular/Front-end" as Front
participant "Django API (back.apps.api)" as API
database "PostgreSQL" as DB

== Sign up ==
User -> Front: Fill the form
Front -> API: POST /api/v1/user/
API -> DB: Check the mail

alt mail already been used
    DB - -> API: Conflict
    API - -> Front: 400 Bad Request
    Front - -> User: Display "This mail already been used"
else new user
    API -> DB: Save User (hash password)
    DB - -> API: Success
    API - -> Front: 201 Created
    Front - -> User: Display "Successful registration"
end

== Log in (with SimpleJWT)==

User -> Front: Enter identifiers
Front -> API: POST /api/v1/token/
API -> DB: Verify User
alt invalid identifiers
    DB - -> API: Not found / Wrong password
    API - -> Front: 401 Unauthorized
    Front - -> User: Display "Email or password wrong"
else valid identifiers
    API - -> Front: 200 OK {access, refresh}
    Note over Front: Tokens are stored in localStorage/Cookies/store
    Front - -> User: Redirect to main page
end

== API call with expired access token ==
Front -> API: GET /api/v1/user/me/ (expired access token)
API - -> Front: 401 Unauthorized

alt valid refresh token
    Front -> API: POST /api/v1/token/refresh/ {refresh_token}
    API - -> Front: 200 OK {new_access_token}
    Front -> API: Retry the previous request
else expired refresh token
    Front - -> User:  Forced disconnection (redirect to login page)
end
@enduml

PlantUML version 1.2020.02(Sun Mar 01 11:22:07 CET 2020)
(GPL source distribution)
Java Runtime: OpenJDK Runtime Environment
JVM: OpenJDK 64-Bit Server VM
Java Version: 21.0.10+7-Ubuntu-124.04
Operating System: Linux
Default Encoding: UTF-8
Language: en
Country: null
--></g></svg>